<?xml version="1.0" encoding="UTF-8"?>
<svg width="35px" height="35px" viewBox="0 0 35 35" version="1.1" xmlns="http://www.w3.org/2000/svg" xmlns:xlink="http://www.w3.org/1999/xlink">
    <!-- Generator: Sketch 52.4 (67378) - http://www.bohemiancoding.com/sketch -->
    <title>Shape</title>
    <desc>Created with Sketch.</desc>
    <g id="Page-1" stroke="none" stroke-width="1" fill="none" fill-rule="evenodd">
        <g id="iPhone-8-Copy-16" transform="translate(-270.000000, -725.000000)" fill="#FFFFFF" fill-rule="nonzero">
            <path d="M284.209554,759.990811 C281.695242,759.571102 279.331296,758.55247 277.283011,757.028092 C276.942338,756.774556 276.90269,756.266394 277.199665,755.959849 L280.836222,752.206093 C281.058558,751.976592 281.40413,751.933856 281.672695,752.102649 C282.541388,752.648624 283.486697,753.054424 284.479471,753.303685 C284.784962,753.380386 285,753.662817 285,753.987347 L285,759.296239 C285,759.729646 284.624045,760.060001 284.209554,759.990811 Z M272.971908,752.716989 C271.44753,750.668704 270.428898,748.304758 270.009189,745.790446 C269.939999,745.375955 270.270354,745 270.703761,745 L276.012653,745 C276.337183,745 276.619614,745.215038 276.696315,745.520529 C276.945576,746.513303 277.351376,747.458612 277.897351,748.327305 C278.066144,748.59587 278.023408,748.941442 277.793907,749.163778 L274.040151,752.800335 C273.733606,753.09731 273.225444,753.057662 272.971908,752.716989 Z M270.009189,739.209554 C270.428898,736.695242 271.44753,734.331296 272.971908,732.283011 C273.225444,731.942338 273.733606,731.90269 274.040151,732.199665 L277.793907,735.836222 C278.023408,736.058558 278.066144,736.40413 277.897351,736.672695 C277.351376,737.541388 276.945576,738.486697 276.696315,739.479471 C276.619614,739.784962 276.337183,740 276.012653,740 L270.703761,740 C270.270354,740 269.939999,739.624045 270.009189,739.209554 Z M277.283011,727.971908 C279.331296,726.44753 281.695242,725.428898 284.209554,725.009189 C284.624045,724.939999 285,725.270354 285,725.703761 L285,731.012653 C285,731.337183 284.784962,731.619614 284.479471,731.696315 C283.486697,731.945576 282.541388,732.351376 281.672695,732.897351 C281.40413,733.066144 281.058558,733.023408 280.836222,732.793907 L277.199665,729.040151 C276.90269,728.733606 276.942338,728.225444 277.283011,727.971908 Z M290.790446,725.009189 C293.304758,725.428898 295.668704,726.44753 297.716989,727.971908 C298.057662,728.225444 298.09731,728.733606 297.800335,729.040151 L294.163778,732.793907 C293.941442,733.023408 293.59587,733.066144 293.327305,732.897351 C292.458612,732.351376 291.513303,731.945576 290.520529,731.696315 C290.215038,731.619614 290,731.337183 290,731.012653 L290,725.703761 C290,725.270354 290.375955,724.939999 290.790446,725.009189 Z M302.028092,732.283011 C303.55247,734.331296 304.571102,736.695242 304.990811,739.209554 C305.060001,739.624045 304.729646,740 304.296239,740 L298.987347,740 C298.662817,740 298.380386,739.784962 298.303685,739.479471 C298.054424,738.486697 297.648624,737.541388 297.102649,736.672695 C296.933856,736.40413 296.976592,736.058558 297.206093,735.836222 L300.959849,732.199665 C301.266394,731.90269 301.774556,731.942338 302.028092,732.283011 Z M304.990811,745.790446 C304.571102,748.304758 303.55247,750.668704 302.028092,752.716989 C301.774556,753.057662 301.266394,753.09731 300.959849,752.800335 L297.206093,749.163778 C296.976592,748.941442 296.933856,748.59587 297.102649,748.327305 C297.648624,747.458612 298.054424,746.513303 298.303685,745.520529 C298.380386,745.215038 298.662817,745 298.987347,745 L304.296239,745 C304.729646,745 305.060001,745.375955 304.990811,745.790446 Z M297.716989,757.028092 C295.668704,758.55247 293.304758,759.571102 290.790446,759.990811 C290.375955,760.060001 290,759.729646 290,759.296239 L290,753.987347 C290,753.662817 290.215038,753.380386 290.520529,753.303685 C291.513303,753.054424 292.458612,752.648624 293.327305,752.102649 C293.59587,751.933856 293.941442,751.976592 294.163778,752.206093 L297.800335,755.959849 C298.09731,756.266394 298.057662,756.774556 297.716989,757.028092 Z" id="Shape" transform="translate(287.500000, 742.500000) scale(-1, 1) translate(-287.500000, -742.500000) "></path>
        </g>
    </g>
</svg>