<?xml version="1.0" encoding="UTF-8"?>
<svg width="36px" height="36px" viewBox="0 0 36 36" version="1.1" xmlns="http://www.w3.org/2000/svg" xmlns:xlink="http://www.w3.org/1999/xlink">
    <!-- Generator: Sketch 52.6 (67491) - http://www.bohemiancoding.com/sketch -->
    <title>Group 2 Copy</title>
    <desc>Created with Sketch.</desc>
    <g id="Page-1" stroke="none" stroke-width="1" fill="none" fill-rule="evenodd">
        <g id="iPhone-8-Copy-20" transform="translate(-309.000000, -36.000000)" fill="#FFFFFF" fill-rule="nonzero" stroke="#FFFFFF">
            <g id="Group-2-Copy" transform="translate(309.000000, 36.000000)">
                <path d="M18,35.5 C27.6649831,35.5 35.5,27.6649831 35.5,18 C35.5,8.33501688 27.6649831,0.5 18,0.5 C8.33501688,0.5 0.5,8.33501688 0.5,18 C0.5,27.6649831 8.33501688,35.5 18,35.5 Z M18.5228664,16.500528 L20.5027509,10.915 L26.828,10.915 L26.828,25.5 L21.553,25.5 L21.553,19.6641653 L19.2988743,25.5 L17.1668417,25.5 L14.972,19.7111051 L14.972,25.5 L10.134,25.5 L10.134,10.915 L16.5751751,10.915 L18.5228664,16.500528 Z" id="Combined-Shape"></path>
            </g>
        </g>
    </g>
</svg>