<?xml version="1.0" encoding="UTF-8"?>
<svg width="339px" height="243px" viewBox="0 0 339 243" version="1.1" xmlns="http://www.w3.org/2000/svg" xmlns:xlink="http://www.w3.org/1999/xlink">
    <!-- Generator: Sketch 52.3 (67297) - http://www.bohemiancoding.com/sketch -->
    <title>NO</title>
    <desc>Created with Sketch.</desc>
    <g id="Page-1" stroke="none" stroke-width="1" fill="none" fill-rule="evenodd">
        <g id="iPhone-8-Copy-3" transform="translate(-12.000000, -140.000000)" fill="#FFFFFF">
            <path d="M181.103748,344.033428 L137.885775,344.033428 L73.9875682,231.840065 L73.9875682,344.033428 L30.5219277,344.033428 L30.5219277,163.731512 L73.9875682,163.731512 L137.761941,275.924875 L137.761941,163.731512 L181.103748,163.731512 L181.103748,344.033428 Z M350.521928,257.597482 C350.521928,275.18196 347.261005,290.743577 340.739063,304.2828 C334.21712,317.822022 324.950322,328.244591 312.938389,335.550817 C300.926457,342.857044 287.242967,346.510103 271.887507,346.510103 C256.532047,346.510103 242.910472,342.980877 231.022375,335.922319 C219.134277,328.863761 209.867478,318.771412 203.221701,305.644971 C196.575924,292.518529 193.087976,277.452242 192.757751,260.445658 L192.757751,250.291292 C192.757751,232.624257 195.998035,217.042002 202.478699,203.544057 C208.959363,190.046113 218.246801,179.623544 230.341289,172.276039 C242.435778,164.928535 256.201823,161.254837 271.639839,161.254837 C286.912743,161.254837 300.534317,164.887257 312.504971,172.152206 C324.475626,179.417154 333.783701,189.757168 340.429478,203.172556 C347.075255,216.587944 350.439371,231.963812 350.521928,249.300622 L350.521928,257.597482 Z M306.313285,250.043624 C306.313285,232.128921 303.320666,218.527985 297.335339,209.240409 C291.350012,199.952833 282.784931,195.309114 271.639839,195.309114 C249.844993,195.309114 238.328571,211.655003 237.090228,244.347273 L236.966394,257.597482 C236.966394,275.264516 239.897096,288.844813 245.758589,298.33878 C251.620082,307.832748 260.329634,312.57966 271.887507,312.57966 C282.867486,312.57966 291.329373,307.915303 297.273422,298.586448 C303.217471,289.257593 306.230729,275.842406 306.313285,258.340484 L306.313285,250.043624 Z" id="NO" transform="translate(190.521928, 253.882470) rotate(-15.000000) translate(-190.521928, -253.882470) "></path>
        </g>
    </g>
</svg>