<?xml version="1.0" encoding="UTF-8"?>
<svg width="375px" height="269px" viewBox="0 0 375 269" version="1.1" xmlns="http://www.w3.org/2000/svg" xmlns:xlink="http://www.w3.org/1999/xlink">
    <!-- Generator: Sketch 52.4 (67378) - http://www.bohemiancoding.com/sketch -->
    <title>Shape</title>
    <desc>Created with Sketch.</desc>
    <g id="Page-1" stroke="none" stroke-width="1" fill="none" fill-rule="evenodd">
        <g id="Artboard" fill="#FFFFFF">
            <path d="M214,225.631936 L167.548177,238.078855 L66.4177942,135.371495 L98.8686908,256.481751 L52.1506682,269 L0,74 L47,61 L147.715306,164.592841 L115,43 L161.849332,31 L214,225.631936 Z M370.294467,84.2465414 C375.356725,103.167819 376.334457,120.852284 373.227693,137.300468 C370.12093,153.748652 363.169004,167.634344 352.371709,178.957961 C341.574413,190.281577 327.930207,198.156066 311.438682,202.581663 C294.947158,207.00726 279.301797,207.135611 264.502132,202.96672 C249.702467,198.797828 236.844662,190.609028 225.928332,178.400073 C215.012002,166.191119 206.928684,150.984732 201.678135,132.780455 L198.754874,121.854138 C193.668849,102.844029 192.66301,85.1433038 195.737325,68.7514325 C198.811639,52.3595612 205.785731,38.4679208 216.659807,27.0760947 C227.533884,15.6842685 241.260811,7.76377886 257.841,3.31438815 C274.24386,-1.08741551 289.918928,-1.1047276 304.866674,3.26245133 C319.81442,7.62963027 332.787854,16.0730267 343.787366,28.5928939 C354.786879,41.1127611 362.826326,56.6879545 367.905948,75.3189412 L370.294467,84.2465414 Z M321.345548,88.2121473 C316.151441,68.9227801 308.940121,55.1495253 299.711373,46.8919695 C290.482625,38.6344138 279.783216,36.1281801 267.612825,39.3731932 C243.812951,45.7189965 235.976322,66.6722988 244.102705,102.233729 L247.809184,116.536733 C252.931484,135.559427 260.069207,149.328487 269.222569,157.844326 C278.37593,166.360166 289.263021,168.935447 301.884166,165.570248 C313.874255,162.37331 321.762235,154.887269 325.548344,143.111902 C329.334454,131.336535 328.735379,116.014606 323.751102,97.1456575 L321.345548,88.2121473 Z" id="Shape"></path>
        </g>
    </g>
</svg>