<?xml version="1.0" encoding="UTF-8"?>
<svg width="339px" height="243px" viewBox="0 0 339 243" version="1.1" xmlns="http://www.w3.org/2000/svg" xmlns:xlink="http://www.w3.org/1999/xlink" >
    <!-- Generator: Sketch 52.4 (67378) - http://www.bohemiancoding.com/sketch -->
    <title>Shape</title>
    <desc>Created with Sketch.</desc>
    <g id="Page-1" stroke="none" stroke-width="1" fill="none" fill-rule="evenodd">
        <g id="NO" transform="translate(0.000000, -17.000000)" fill="#FFFFFF" fill-rule="nonzero">
            <path d="M192.75745,220.399213 L151.012093,231.584847 L60.253386,139.752453 L89.2911651,248.12292 L47.3065804,259.372656 L0.641010639,85.2143787 L42.6255954,73.9646431 L133.264688,165.829088 L104.226909,57.4586209 L146.09188,46.2409358 L192.75745,220.399213 Z M334.031576,93.0598488 C338.582774,110.04515 339.460607,125.920507 336.665104,140.686395 C333.869599,155.452282 327.616119,167.918135 317.904473,178.084324 C308.192828,188.250514 295.921073,195.320646 281.088838,199.294931 C266.256602,203.269217 252.18574,203.385769 238.875831,199.644592 C225.565921,195.903415 214.002788,188.553378 204.186088,177.594263 C194.369387,166.635148 187.100846,152.984979 182.380245,136.643349 L179.752102,126.834985 C175.179537,109.769939 174.276426,93.8799897 177.042742,79.1646568 C179.809058,64.4493248 186.082475,51.9781304 195.863179,41.7507017 C205.643884,31.5232737 217.990039,24.4118394 232.902018,20.4161868 C247.65451,16.4632684 261.75208,16.4463939 275.195151,20.3655625 C288.638222,24.2847299 300.305325,31.8633094 310.196811,43.1015255 C320.088296,54.3397416 327.31735,68.3209923 331.884191,85.0456975 L334.031576,93.0598488 Z M289.374224,97.2054211 C284.737557,79.9011468 278.326728,67.5381982 270.141545,60.1162053 C261.956361,52.6942124 252.481245,50.4255304 241.715913,53.3100924 C220.663709,58.9510137 213.770326,77.7205994 221.035561,109.619414 L224.345353,122.450184 C228.917918,139.515228 235.263598,151.874266 243.382585,159.527668 C251.501572,167.181071 261.142945,169.512038 272.306993,166.52064 C282.912838,163.678813 289.879169,156.983292 293.206194,146.433877 C296.533219,135.884462 295.971697,122.146498 291.521609,105.219572 L289.374224,97.2054211 Z" id="Shape"></path>
        </g>
    </g>
</svg>