<?xml version="1.0" encoding="UTF-8"?>
<svg width="338px" height="243px" viewBox="0 0 338 243" version="1.1" xmlns="http://www.w3.org/2000/svg" xmlns:xlink="http://www.w3.org/1999/xlink">
    <!-- Generator: Sketch 52.4 (67378) - http://www.bohemiancoding.com/sketch -->
    <title>no</title>
    <desc>Created with Sketch.</desc>
    <g id="Page-1" stroke="none" stroke-width="1" fill="none" fill-rule="evenodd">
        <g id="no" transform="translate(-1.000000, -17.000000)" fill="#FFFFFF">
            <g id="Shape">
                <path d="M169.788857,220.821077 L126.649516,220.82076 L62.8692061,108.833945 L62.8685755,220.820671 L19.4830047,220.821077 L19.4830047,40.8492374 L62.8693116,40.8492374 L126.526362,152.837126 L126.526029,40.850142 L169.788857,40.8492374 L169.788857,220.821077 Z M338.895065,134.542419 C338.895658,152.095493 335.640975,167.628238 329.1305,181.142583 C322.620024,194.656928 313.370665,205.060627 301.380493,212.353165 C289.391027,219.646925 275.732716,223.292123 260.405491,223.292873 C245.078524,223.292658 231.481968,219.769343 219.615564,212.723893 C207.74916,205.678442 198.499493,195.604692 191.866563,182.502642 C185.231964,169.399112 181.750639,154.361753 181.420731,137.385933 L181.420775,127.250598 C181.421567,109.615226 184.656021,94.0615595 191.124138,80.5896002 C197.593736,67.1159709 206.862706,56.7123591 218.935163,49.3788337 C231.007879,42.0443443 244.748387,38.3777698 260.159134,38.3776988 C275.402838,38.3762704 288.999592,42.0029757 300.948243,49.2544054 C312.8976,56.5070576 322.188636,66.8275022 328.821799,80.217926 C335.454962,93.6083497 338.81362,108.956955 338.895398,126.261037 L338.895065,134.542419 Z M294.767818,127.002933 C294.767425,109.1213 291.781114,95.5454994 285.806954,86.2750158 C279.831831,77.0042739 271.283633,72.3690624 260.158246,72.3693122 C238.403592,72.369441 226.908834,88.6848531 225.671527,121.31696 L225.549025,134.543376 C225.548492,152.177785 228.474131,165.733195 234.324979,175.209347 C240.175827,184.685499 248.869021,189.423631 260.405524,189.424002 C271.365538,189.423876 279.811436,184.768499 285.744698,175.456201 C291.677703,166.144867 294.685941,152.754411 294.76845,135.284573 L294.767818,127.002933 Z" transform="translate(179.189201, 130.835285) rotate(-15.000000) translate(-179.189201, -130.835285) "></path>
            </g>
        </g>
    </g>
</svg>