<?xml version="1.0" encoding="utf-8"?>
<!-- Generator: Adobe Illustrator 23.0.0, SVG Export Plug-In . SVG Version: 6.00 Build 0)  -->
<svg version="1.1" id="Layer_1" xmlns="http://www.w3.org/2000/svg" xmlns:xlink="http://www.w3.org/1999/xlink" x="0px" y="0px"
	 viewBox="0 0 750 1334" style="enable-background:new 0 0 750 1334;" xml:space="preserve">
<style type="text/css">
	.st0{clip-path:url(#SVGID_2_);fill:#211F1F;}
</style>
<g>
	<defs>
		<path id="SVGID_1_" d="M502.37,833.21c-4.64-17.3-11.05-29.67-19.23-37.09c-8.19-7.42-17.66-9.69-28.43-6.81
			c-21.05,5.64-27.95,24.41-20.68,56.31l3.31,12.83c4.57,17.07,10.92,29.42,19.04,37.08c8.12,7.65,17.76,9.98,28.92,6.99
			c10.61-2.84,17.57-9.54,20.9-20.09s2.77-24.29-1.68-41.21L502.37,833.21z M547.03,829.06c4.55,16.99,5.43,32.86,2.63,47.63
			s-9.05,27.23-18.76,37.4c-9.71,10.17-21.98,17.24-36.82,21.21c-14.83,3.97-28.9,4.09-42.21,0.35
			c-13.31-3.74-24.87-11.09-34.69-22.05c-9.82-10.96-17.09-24.61-21.81-40.95l-2.63-9.81c-4.57-17.07-5.48-32.96-2.71-47.67
			c2.77-14.72,9.04-27.19,18.82-37.41c9.78-10.23,22.13-17.34,37.04-21.33c14.75-3.95,28.85-3.97,42.29-0.05
			c13.44,3.92,25.11,11.5,35,22.74s17.12,25.22,21.69,41.94L547.03,829.06z M405.76,956.4l-41.75,11.19l-90.76-91.83l29.04,108.37
			l-41.98,11.25l-46.67-174.16l41.98-11.25l90.64,91.86l-29.04-108.37l41.87-11.22L405.76,956.4z"/>
	</defs>
	<use xlink:href="#SVGID_1_"  style="overflow:visible;fill:#211F1F;"/>
	<clipPath id="SVGID_2_">
		<use xlink:href="#SVGID_1_"  style="overflow:visible;"/>
	</clipPath>
	<rect x="208.64" y="748.44" class="st0" width="347.62" height="251.93"/>
</g>
</svg>
