<?xml version="1.0" encoding="UTF-8"?>
<svg width="337px" height="242px" viewBox="0 0 337 242" version="1.1" xmlns="http://www.w3.org/2000/svg" xmlns:xlink="http://www.w3.org/1999/xlink">
    <!-- Generator: Sketch 52.4 (67378) - http://www.bohemiancoding.com/sketch -->
    <title>no</title>
    <desc>Created with Sketch.</desc>
    <g id="Page-1" stroke="none" stroke-width="1" fill="none" fill-rule="evenodd">
        <g id="no" fill="#FFFFFF">
            <path d="M191.764075,202.588066 L150.094721,213.753529 L59.5033512,122.090131 L88.4870396,230.261165 L46.5801218,241.49051 L-0.0002,67.6512642 L41.907716,56.4219191 L132.380304,148.118256 L103.395617,39.947222 L145.183754,28.7498182 L191.764075,202.588066 Z M332.7777,75.4818609 C337.321342,92.4366748 338.19773,108.282528 335.406864,123.021418 C332.615997,137.760308 326.374478,150.203421 316.680309,160.350756 C306.987138,170.499089 294.737669,177.555111 279.932901,181.522813 C265.128132,185.489517 251.082966,185.605304 237.797403,181.871172 C224.51184,178.13704 212.97007,170.800535 203.172092,159.861656 C193.372118,148.921778 186.117462,135.297837 181.405129,118.985841 L178.781954,109.195849 C174.218348,92.1611815 173.317006,76.3003554 176.077928,61.6133701 C178.839848,46.9243885 185.100333,34.4762851 194.863375,24.2680618 C204.626417,14.0588402 216.94975,6.96089595 231.83537,2.97223256 C246.559287,-0.974507944 260.631403,-0.990478568 274.049722,2.92132619 C287.469039,6.83412912 299.114619,14.398216 308.987459,25.6155832 C318.860299,36.8329503 326.077025,50.7892795 330.634642,67.4825745 L332.7777,75.4818609 Z M288.20269,79.6202489 C283.574203,62.3480188 277.175972,50.0077171 269.005999,42.5993438 C260.835029,35.1909705 251.378423,32.9261364 240.632189,35.8058396 C219.61884,41.4364828 212.738496,60.1710231 219.989159,92.0114569 L223.29408,104.818899 C227.857686,121.852568 234.192035,134.188877 242.296129,141.827826 C250.400222,149.466776 260.023521,151.793496 271.167024,148.807987 C281.753552,145.971205 288.706762,139.288497 292.027654,128.757867 C295.348546,118.228235 294.788576,104.515457 290.346746,87.6195353 L288.20269,79.6202489 Z" id="Fill-1"></path>
        </g>
    </g>
</svg>